HIERARCHY
ROOT Hips
{
	OFFSET	0.00	0.00	0.00
	CHANNELS 6 Xposition Yposition Zposition Zrotation Xrotation Yrotation
	JOINT Spine
	{
		OFFSET	 0.00	0.01	 0.00
		CHANNELS 3 Zrotation Xrotation Yrotation
		JOINT Spine1
		{
			OFFSET	 0.00	 2.45913012437421	 0.00
			CHANNELS 3 Zrotation Xrotation Yrotation
            JOINT Neck
            {
                OFFSET	 0.00	 2.48462964506057	 0.00
                CHANNELS 3 Zrotation Xrotation Yrotation
                JOINT Head
                {
                    OFFSET	 0.00	 0.927524780924562	 0.00
                    CHANNELS 3 Zrotation Xrotation Yrotation
                    End Site 
                    {
                        OFFSET	 0.00	 1.14999962169752	 0.00
                    }
                }
            }
			JOINT LeftShoulder
			{
				OFFSET	 0.00	 2.48462964506057	 0.00
				CHANNELS 3 Zrotation Xrotation Yrotation
				JOINT LeftUpArm
				{
					OFFSET	 0.00	 1.24881979654096	 0.00
					CHANNELS 3 Zrotation Xrotation Yrotation
					JOINT LeftForeArm
					{
						OFFSET	 0.00	2.59758046908119	 0.00
						CHANNELS 3 Zrotation Xrotation Yrotation
						JOINT LeftHand
						{
							OFFSET	 0.00	2.45542024364365	 0.00
							CHANNELS 3 Zrotation Xrotation Yrotation
							JOINT LeftHandThumb 
							{
								OFFSET	 0.00	0.00	 0.00
								CHANNELS 3 Zrotation Xrotation Yrotation
								End Site
								{
									OFFSET	 0.00	0.00	1.00000003353624
								}
							}
							JOINT L_Wrist_End 
							{
								OFFSET	 0.00	0.99999967115358	 0.00
								CHANNELS 3 Zrotation Xrotation Yrotation
								End Site 
								{
									OFFSET	 0.00	 0.00	 0.00
								}
							}
						}
					}
				}
			}
			JOINT RightShoulder
			{
				OFFSET	 0.00	 2.48462964506057	 0.00
				CHANNELS 3 Zrotation Xrotation Yrotation
				JOINT RightUpArm
				{
					OFFSET	 0.00	 1.24881979654096	 0.00
					CHANNELS 3 Zrotation Xrotation Yrotation
					JOINT RightForeArm
					{
						OFFSET	 0.00	2.59758046908119	 0.00
						CHANNELS 3 Zrotation Xrotation Yrotation
						JOINT RightHand
						{
							OFFSET	 0.00	2.45542024364365	 0.00
							CHANNELS 3 Zrotation Xrotation Yrotation
							JOINT RightHandThumb 
							{
								OFFSET	 0.00	0.00	 0.00
								CHANNELS 3 Zrotation Xrotation Yrotation
								End Site
								{
									OFFSET	 0.00	0.00	1.00000003353624
								}
							}
							JOINT R_Wrist_End 
							{
								OFFSET	 0.00	0.99999967115358	 0.00
								CHANNELS 3 Zrotation Xrotation Yrotation
								End Site 
								{
									OFFSET	 0.00	 0.00	 0.00
								}
							}
						}
					}
				}
			}
		}
	}
	JOINT LeftUpLeg
	{
		OFFSET	 1.2719394002717	 0.00	 0.00
		CHANNELS 3 Zrotation Xrotation Yrotation
		JOINT LeftLowLeg
		{
			OFFSET	 0.00	-4.3429100912261	 0.00
			CHANNELS 3 Zrotation Xrotation Yrotation
			JOINT LeftFoot
			{
				OFFSET	 0.00	-4.48767017425826	 0.00
				CHANNELS 3 Zrotation Xrotation Yrotation
				JOINT LeftToeBase
                {
                    OFFSET	 0.00	0.00	 1.51507020887566
                    CHANNELS 3 Zrotation Xrotation Yrotation
                    End Site 
                    {
                        OFFSET	 0.00	0.00	 0.75000010571191
                    }
                }
			}
		}
	}
	JOINT RightUpLeg
	{
		OFFSET	 -1.2719393604653	 0.00	 0.00
		CHANNELS 3 Zrotation Xrotation Yrotation
		JOINT RightLowLeg
		{
			OFFSET	 0.00	-4.3429100912261	 0.00
			CHANNELS 3 Zrotation Xrotation Yrotation
			JOINT RightFoot
			{
				OFFSET	 0.00	-4.48767017425826	 0.00
				CHANNELS 3 Zrotation Xrotation Yrotation
				JOINT RightToeBase
                {
                    OFFSET	 0.00	0.00	 1.51507020887566
                    CHANNELS 3 Zrotation Xrotation Yrotation
                    End Site 
                    {
                        OFFSET	 0.00	0.00	 0.749999965609858
                    }
                }   
			}
		}
	}
}
MOTION 
Frames:	10 
Frame Time: 0.02 
 0.5851649856567382 18.199599609375 9.324190063476562 34.1013 84.6292 324.338 3.85328 -10.7453 -0.147126 -8.35411 15.0753 3.23884 14.5135 52.4462 353.687 -64.0567 -82.1347 -776.21 -115.687 -3.24343 367.442 -44.9613 6.6317 28.9125 0.0 20.2282 0.0 12.7534 -16.5718 -8.23403 0.0 0.0 0.0 0.0 0.0 0.0 120.8987 -4.27786 -361.864 46.7736 1.24545 -378.554 0.0 22.71 0.0 -1.68715 -7.5256 -51.1879 0.0 0.0 0.0 0.0 0.0 0.0 -3.80895 2.36068 -366.403 0.0 15.911 0.0 -17.0343 -6.3524 10.3673 0.0 -20.43469 0.0 1.93482 0.796099 13.895 0.0 19.7239 0.0 31.9146 -13.0599 -6.21861 0.0 -16.15021 0.0 
  0.5834719848632812 18.19489990234375 9.32552001953125 35.4544 84.8867 323.391 3.8107 -11.2718 -0.375388 -8.27789 15.4082 3.16471 14.6198 52.0185 353.596 -63.7497 -82.2757 -775.855 -115.6727 -3.24467 367.472 -45.0054 6.78929 28.8647 0.0 20.2856 0.0 12.8198 -16.5705 -8.05457 0.0 0.0 0.0 0.0 0.0 0.0 120.7781 -4.24587 -361.862 46.8518 1.28742 -378.695 0.0 22.7388 0.0 2.71523 -8.05741 17.8084 0.0 0.0 0.0 0.0 0.0 0.0 -3.74861 2.03 -366.898 0.0 16.0123 0.0 -17.0312 -6.3971996 10.4419 0.0 -20.43525 0.0 1.96935 0.697783 13.4313 0.0 19.4908 0.0 31.9024 -12.976 -6.22293 0.0 -16.17716 0.0 
  0.5827220153808593 18.192900390625 9.326370239257812 33.3196 84.6525 325.844 3.7457 -11.1608 -0.578964 -8.1821 15.7212 3.07246 14.6256 51.6859 353.59 -63.716 -82.3641 -775.844 -115.6897 -3.20473 367.441 -45.0172 6.85902 28.8994 0.0 20.3672 0.0 12.9461 -16.4449 -7.69589 0.0 0.0 0.0 0.0 0.0 0.0 120.7087 -4.19606 -361.807 46.8667 1.34924 -378.862 0.0 22.7914 0.0 2.90165 -8.68153 17.5654 0.0 0.0 0.0 0.0 0.0 0.0 -3.73258 2.2626 -367.326 0.0 16.1319 0.0 -17.0655 -6.4428997 10.5384 0.0 -20.40259 0.0 1.96094 1.15958 12.9462 0.0 19.2467 0.0 31.7358 -12.863899 -6.23968 0.0 -16.20953 0.0 
  0.577146987915039 18.204599609375 9.32426025390625 30.4228 84.1197 328.096 3.69334 -10.3705 -0.268935 -8.09863 15.6949 3.40621 14.7631 51.2083 353.437 -64.0011 -82.5268 -776.099 -115.7872 -3.20163 367.47 -44.9001 7.07373 28.9357 0.0 20.4722 0.0 13.1395 -16.3714 -7.31286 0.0 0.0 0.0 0.0 0.0 0.0 120.756 -4.06116 -361.726 46.7578 1.34146 -379.004 0.0 22.8954 0.0 2.81251 -8.54386 17.5061 0.0 0.0 0.0 0.0 0.0 0.0 -3.77183 2.86468 -366.641 0.0 16.0798 0.0 -17.0874 -6.4251003 10.5189 0.0 -20.4336 0.0 2.01636 1.39319 13.858 0.0 19.7406 0.0 31.7241 -13.0427 -6.39077 0.0 -16.18334 0.0 
  0.5736690139770508 18.205999755859374 9.323460083007813 31.6506 84.2563 326.906 3.57621 -10.6304 -0.333825 -7.97506 15.8424 3.49691 14.8291 50.9176 353.375 -63.8504 -82.6148 -775.995 -115.826004 -3.15738 367.448 -44.8582 7.09612 29.0218 0.0 20.6216 0.0 13.2954 -16.2206 -7.06405 0.0 0.0 0.0 0.0 0.0 0.0 120.7321 -3.98291 -361.883 46.7172 1.49161 -378.985 0.0 22.9418 0.0 2.75509 -8.56959 17.4465 0.0 0.0 0.0 0.0 0.0 0.0 -3.77694 2.65156 -366.678 0.0 16.1201 0.0 -17.0701 -6.4153996 10.5079 0.0 -20.49319 0.0 2.04847 1.1743 14.0578 0.0 19.8408 0.0 31.7668 -13.185101 -6.50941 0.0 -16.18073 0.0 
  0.5703939819335937 18.20300048828125 9.323839721679688 32.2431 84.2377 326.129 3.479 -10.8021 -0.293491 -7.89522 16.0661 3.6961 14.838 50.6447 353.39 -63.6686 -82.7043 -775.846 -115.8928 -3.17977 367.443 -44.7792 7.1895 29.1738 0.0 20.7245 0.0 13.4804 -16.1008 -6.96084 0.0 0.0 0.0 0.0 0.0 0.0 120.7018 -3.90493 -361.755 46.6972 1.43491 -379.095 0.0 22.9433 0.0 2.74477 -8.61061 17.3594 0.0 0.0 0.0 0.0 0.0 0.0 -3.81047 2.72846 -366.394 0.0 15.9846 0.0 -17.0891 -6.3365993 10.4488 0.0 -20.5224 0.0 2.06201 1.11218 14.5678 0.0 19.976 0.0 31.7916 -13.369301 -6.70738 0.0 -16.1488 0.0 
  0.5687910079956054 18.195999755859376 9.3252197265625 32.681 84.3774 326.12 3.41882 -11.2547 -0.551914 -7.78722 16.4571 3.60935 14.9045 50.3146 353.325 -63.0322 -82.7755 -775.268 -115.9244 -3.18228 367.469 -44.7388 7.30786 29.3148 0.0 20.8 0.0 13.6116 -15.8775 -6.7488 0.0 0.0 0.0 0.0 0.0 0.0 120.680405 -3.88163 -361.801 46.6572 1.56005 -379.044 0.0 22.957 0.0 2.8589 -8.75633 17.2506 0.0 0.0 0.0 0.0 0.0 0.0 -3.75295 2.56458 -366.853 0.0 16.0512 0.0 -17.1004 -6.3517 10.4857 0.0 -20.53972 0.0 2.07681 1.21701 14.0561 0.0 19.6458 0.0 31.7494 -13.288 -6.71936 0.0 -16.16135 0.0 
  0.5636470031738281 18.206300048828126 9.323140258789062 30.625 84.015 327.725 3.39921 -10.5787 -0.321118 -7.74915 16.2354 3.78707 15.1128 50.1521 353.154 -63.4701 -82.9293 -775.679 -116.0351 -3.22873 367.538 -44.552 7.40811 29.4524 0.0 20.915 0.0 13.7499 -15.8939 -6.58174 0.0 0.0 0.0 0.0 0.0 0.0 120.7893 -3.86759 -361.832 46.5277 1.64823 -379.225 0.0 22.832 0.0 2.72648 -8.5558 17.2565 0.0 0.0 0.0 0.0 0.0 0.0 -3.76066 2.94762 -366.363 0.0 16.0654 0.0 -17.1456 -6.386299 10.4377 0.0 -20.47675 0.0 2.12006 1.38047 14.5587 0.0 19.9455 0.0 31.7361 -13.357599 -6.74003 0.0 -16.14281 0.0 
  0.5613140106201172 18.2081005859375 9.322639770507813 31.4994 84.1297 326.916 3.30728 -10.8426 -0.394803 -7.63546 16.4838 3.87556 15.2099 49.8365 353.021 -62.9765 -82.9785 -775.183 -116.1076 -3.15506 367.482 -44.5051 7.458 29.5129 0.0 20.975 0.0 13.7694 -15.8815 -6.54699 0.0 0.0 0.0 0.0 0.0 0.0 120.7669 -3.84687 -361.789 46.486 1.72398 -379.2 0.0 22.8282 0.0 2.7347 -8.5636 17.2193 0.0 0.0 0.0 0.0 0.0 0.0 -3.75383 2.7657 -366.41 0.0 16.1061 0.0 -17.1791 -6.3922997 10.3928 0.0 -20.50607 0.0 2.1324 1.21473 14.5464 0.0 19.9882 0.0 31.7627 -13.396799 -6.74076 0.0 -16.14479 0.0 
  0.5598460006713867 18.212099609375 9.322059936523438 31.4454 84.1288 327.157 3.27996 -10.8788 -0.501426 -7.59773 16.6356 3.82202 15.3813 49.556 352.866 -62.622 -83.0962 -774.771 -116.1975 -3.16788 367.46 -44.3953 7.55739 29.5499 0.0 21.0236 0.0 13.7477 -15.8728 -6.53323 0.0 0.0 0.0 0.0 0.0 0.0 120.8395 -3.80121 -361.757 46.3795 1.78895 -379.149 0.0 22.7779 0.0 2.79395 -8.51294 17.1672 0.0 0.0 0.0 0.0 0.0 0.0 -3.73868 2.6688 -366.617 0.0 16.2311 0.0 -17.2038 -6.426399 10.3865 0.0 -20.48648 0.0 2.14531 1.22288 14.3541 0.0 19.973 0.0 31.7616 -13.396601 -6.72096 0.0 -16.15074 0.0 
